solid Glass Battery Clip
facet normal 0.0 0.0 -1.0
  outer loop
    vertex 2.865052288103927 -23.553098114778138 -2.4328001476929733
    vertex 0.8678834152091305 -30.489827734563406 -2.4328001476929733
    vertex 0.8678834152091164 -16.615598114778173 -2.4328001476930745
  endloop
endfacet
facet normal 0.0 0.0 -1.0
  outer loop
    vertex 2.5216628087414548 -14.917200672015655 -2.432800147690086
    vertex 0.8678834152091164 -16.615598114778173 -2.4328001476930745
    vertex 0.17935045056363874 -14.608829399931722 -2.432800147690086
  endloop
endfacet
facet normal 0.0 0.0 -1.0
  outer loop
    vertex 0.8678834152091164 -16.615598114778173 -2.4328001476930745
    vertex 2.5216628087414548 -14.917200672015655 -2.432800147690086
    vertex 5.883802288103883 -23.553098114778138 -2.4328001476929733
  endloop
endfacet
facet normal 0.0 0.0 -1.0
  outer loop
    vertex 5.883802288103883 -23.553098114778138 -2.4328001476929733
    vertex 2.5216628087414548 -14.917200672015655 -2.432800147690086
    vertex 4.704350450563643 -15.821299495682553 -2.432800147690086
  endloop
endfacet
facet normal 0.0 0.0 -1.0
  outer loop
    vertex 5.883802288103883 -23.553098114778138 -2.4328001476929733
    vertex 4.704350450563643 -15.821299495682553 -2.432800147690086
    vertex 6.578666820301887 -17.259513030193464 -2.432800147690086
  endloop
endfacet
facet normal 0.0 0.0 -1.0
  outer loop
    vertex -8.56227827735243 -21.316517041753904 -2.432800147690086
    vertex -8.562278277352432 -26.00114175810953 -2.432800147690086
    vertex -8.87064954943636 -23.65882939993173 -2.432800147690086
  endloop
endfacet
facet normal 0.0 0.0 -1.0
  outer loop
    vertex -8.562278277352432 -26.00114175810953 -2.432800147690086
    vertex -8.56227827735243 -21.316517041753904 -2.432800147690086
    vertex -7.658179453685532 -28.183829399931717 -2.432800147690086
  endloop
endfacet
facet normal 0.0 0.0 -1.0
  outer loop
    vertex -7.658179453685532 -28.183829399931717 -2.432800147690086
    vertex -8.56227827735243 -21.316517041753904 -2.432800147690086
    vertex -7.6581794536855305 -19.133829399931717 -2.432800147690086
  endloop
endfacet
facet normal 0.0 0.0 -1.0
  outer loop
    vertex -7.658179453685532 -28.183829399931717 -2.432800147690086
    vertex -7.6581794536855305 -19.133829399931717 -2.432800147690086
    vertex -6.219965919174619 -30.058145769669974 -2.432800147690086
  endloop
endfacet
facet normal 0.0 0.0 -1.0
  outer loop
    vertex -6.219965919174619 -30.058145769669974 -2.432800147690086
    vertex -7.6581794536855305 -19.133829399931717 -2.432800147690086
    vertex -6.219965919174617 -17.259513030193464 -2.432800147690086
  endloop
endfacet
facet normal 0.0 0.0 -1.0
  outer loop
    vertex -6.219965919174619 -30.058145769669974 -2.432800147690086
    vertex -6.219965919174617 -17.259513030193464 -2.432800147690086
    vertex -4.345649549436366 -31.4963593041809 -2.432800147690086
  endloop
endfacet
facet normal 0.0 0.0 -1.0
  outer loop
    vertex -4.345649549436366 -31.4963593041809 -2.432800147690086
    vertex -6.219965919174617 -17.259513030193464 -2.432800147690086
    vertex -4.34564954943636 -15.821299495682553 -2.432800147690086
  endloop
endfacet
facet normal 0.0 0.0 -1.0
  outer loop
    vertex -4.345649549436366 -31.4963593041809 -2.432800147690086
    vertex -4.34564954943636 -15.821299495682553 -2.432800147690086
    vertex -2.1629619076141817 -32.40045812784778 -2.432800147690086
  endloop
endfacet
facet normal 0.0 0.0 -1.0
  outer loop
    vertex -2.1629619076141817 -32.40045812784778 -2.432800147690086
    vertex -4.34564954943636 -15.821299495682553 -2.432800147690086
    vertex -2.1629619076141733 -14.917200672015655 -2.432800147690086
  endloop
endfacet
facet normal 0.0 0.0 -1.0
  outer loop
    vertex -2.1629619076141817 -32.40045812784778 -2.432800147690086
    vertex -2.1629619076141733 -14.917200672015655 -2.432800147690086
    vertex 0.1793504505636359 -32.70882939993172 -2.432800147690086
  endloop
endfacet
facet normal 0.0 0.0 -1.0
  outer loop
    vertex 0.1793504505636359 -32.70882939993172 -2.432800147690086
    vertex -2.1629619076141733 -14.917200672015655 -2.432800147690086
    vertex 0.17935045056363874 -14.608829399931722 -2.432800147690086
  endloop
endfacet
facet normal 0.0 0.0 -1.0
  outer loop
    vertex 0.1793504505636359 -32.70882939993172 -2.432800147690086
    vertex 0.17935045056363874 -14.608829399931722 -2.432800147690086
    vertex 0.8678834152091305 -30.489827734563406 -2.4328001476929733
  endloop
endfacet
facet normal 0.0 0.0 -1.0
  outer loop
    vertex 0.1793504505636359 -32.70882939993172 -2.432800147690086
    vertex 0.8678834152091305 -30.489827734563406 -2.4328001476929733
    vertex 2.5216628087414437 -32.4004581278478 -2.432800147690086
  endloop
endfacet
facet normal 0.0 0.0 -1.0
  outer loop
    vertex 0.8678834152091305 -30.489827734563406 -2.4328001476929733
    vertex 0.17935045056363874 -14.608829399931722 -2.432800147690086
    vertex 0.8678834152091164 -16.615598114778173 -2.4328001476930745
  endloop
endfacet
facet normal 0.0 0.0 -1.0
  outer loop
    vertex 2.5216628087414437 -32.4004581278478 -2.432800147690086
    vertex 0.8678834152091305 -30.489827734563406 -2.4328001476929733
    vertex 5.883802288103883 -23.553098114778138 -2.4328001476929733
  endloop
endfacet
facet normal 0.0 0.0 -1.0
  outer loop
    vertex 2.5216628087414437 -32.4004581278478 -2.432800147690086
    vertex 5.883802288103883 -23.553098114778138 -2.4328001476929733
    vertex 4.704350450563635 -31.4963593041809 -2.432800147690086
  endloop
endfacet
facet normal 0.0 0.0 -1.0
  outer loop
    vertex 4.704350450563635 -31.4963593041809 -2.432800147690086
    vertex 5.883802288103883 -23.553098114778138 -2.4328001476929733
    vertex 6.578666820301887 -30.058145769669974 -2.432800147690086
  endloop
endfacet
facet normal 0.0 0.0 -1.0
  outer loop
    vertex 6.578666820301887 -30.058145769669974 -2.432800147690086
    vertex 5.883802288103883 -23.553098114778138 -2.4328001476929733
    vertex 6.578666820301887 -17.259513030193464 -2.432800147690086
  endloop
endfacet
facet normal 0.0 0.0 -1.0
  outer loop
    vertex 6.578666820301887 -30.058145769669974 -2.432800147690086
    vertex 6.578666820301887 -17.259513030193464 -2.432800147690086
    vertex 8.016880354812807 -19.133829399931717 -2.432800147690086
  endloop
endfacet
facet normal 0.0 0.0 -1.0
  outer loop
    vertex 6.578666820301887 -30.058145769669974 -2.432800147690086
    vertex 8.016880354812807 -19.133829399931717 -2.432800147690086
    vertex 8.016880354812798 -28.183829399931724 -2.432800147690086
  endloop
endfacet
facet normal 0.0 0.0 -1.0
  outer loop
    vertex 8.016880354812798 -28.183829399931724 -2.432800147690086
    vertex 8.016880354812807 -19.133829399931717 -2.432800147690086
    vertex 8.920979178479705 -26.001141758109547 -2.432800147690086
  endloop
endfacet
facet normal 0.0 0.0 -1.0
  outer loop
    vertex 8.920979178479705 -26.001141758109547 -2.432800147690086
    vertex 8.016880354812807 -19.133829399931717 -2.432800147690086
    vertex 8.920979178479705 -21.31651704175391 -2.432800147690086
  endloop
endfacet
facet normal 0.0 0.0 -1.0
  outer loop
    vertex 8.920979178479705 -26.001141758109547 -2.432800147690086
    vertex 8.920979178479705 -21.31651704175391 -2.432800147690086
    vertex 9.229350450563633 -23.65882939993173 -2.432800147690086
  endloop
endfacet
facet normal 0.0 0.0 1.0
  outer loop
    vertex -8.562278277352432 -26.00114175810953 -1.4328001476900856
    vertex -8.56227827735243 -21.316517041753904 -1.4328001476900856
    vertex -8.87064954943636 -23.65882939993173 -1.4328001476900856
  endloop
endfacet
facet normal 0.0 0.0 1.0
  outer loop
    vertex -8.56227827735243 -21.316517041753904 -1.4328001476900856
    vertex -8.562278277352432 -26.00114175810953 -1.4328001476900856
    vertex -7.658179453685532 -28.183829399931717 -1.4328001476900856
  endloop
endfacet
facet normal 0.0 0.0 1.0
  outer loop
    vertex -8.56227827735243 -21.316517041753904 -1.4328001476900856
    vertex -7.658179453685532 -28.183829399931717 -1.4328001476900856
    vertex -7.6581794536855305 -19.133829399931717 -1.4328001476900856
  endloop
endfacet
facet normal 0.0 0.0 1.0
  outer loop
    vertex -7.6581794536855305 -19.133829399931717 -1.4328001476900856
    vertex -7.658179453685532 -28.183829399931717 -1.4328001476900856
    vertex -6.219965919174619 -30.058145769669974 -1.4328001476900856
  endloop
endfacet
facet normal 0.0 0.0 1.0
  outer loop
    vertex -7.6581794536855305 -19.133829399931717 -1.4328001476900856
    vertex -6.219965919174619 -30.058145769669974 -1.4328001476900856
    vertex -6.219965919174617 -17.259513030193464 -1.4328001476900856
  endloop
endfacet
facet normal 0.0 0.0 1.0
  outer loop
    vertex -6.219965919174617 -17.259513030193464 -1.4328001476900856
    vertex -6.219965919174619 -30.058145769669974 -1.4328001476900856
    vertex -4.345649549436366 -31.4963593041809 -1.4328001476900856
  endloop
endfacet
facet normal 0.0 0.0 1.0
  outer loop
    vertex -6.219965919174617 -17.259513030193464 -1.4328001476900856
    vertex -4.345649549436366 -31.4963593041809 -1.4328001476900856
    vertex -4.34564954943636 -15.821299495682553 -1.4328001476900856
  endloop
endfacet
facet normal 0.0 0.0 1.0
  outer loop
    vertex -4.34564954943636 -15.821299495682553 -1.4328001476900856
    vertex -4.345649549436366 -31.4963593041809 -1.4328001476900856
    vertex -2.1629619076141817 -32.40045812784778 -1.4328001476900856
  endloop
endfacet
facet normal 0.0 0.0 1.0
  outer loop
    vertex -4.34564954943636 -15.821299495682553 -1.4328001476900856
    vertex -2.1629619076141817 -32.40045812784778 -1.4328001476900856
    vertex -2.1629619076141733 -14.917200672015655 -1.4328001476900856
  endloop
endfacet
facet normal 0.0 0.0 1.0
  outer loop
    vertex -2.1629619076141733 -14.917200672015655 -1.4328001476900856
    vertex -2.1629619076141817 -32.40045812784778 -1.4328001476900856
    vertex 0.1793504505636359 -32.70882939993172 -1.4328001476900856
  endloop
endfacet
facet normal 0.0 0.0 1.0
  outer loop
    vertex -2.1629619076141733 -14.917200672015655 -1.4328001476900856
    vertex 0.1793504505636359 -32.70882939993172 -1.4328001476900856
    vertex 0.17935045056363874 -14.608829399931722 -1.4328001476900856
  endloop
endfacet
facet normal 0.0 0.0 1.0
  outer loop
    vertex 0.17935045056363874 -14.608829399931722 -1.4328001476900856
    vertex 0.1793504505636359 -32.70882939993172 -1.4328001476900856
    vertex 0.8678834152091305 -30.489827734563406 -1.4328001476929733
  endloop
endfacet
facet normal 0.0 0.0 1.0
  outer loop
    vertex 0.8678834152091305 -30.489827734563406 -1.4328001476929733
    vertex 0.1793504505636359 -32.70882939993172 -1.4328001476900856
    vertex 2.5216628087414437 -32.4004581278478 -1.4328001476900856
  endloop
endfacet
facet normal 0.0 0.0 1.0
  outer loop
    vertex 0.17935045056363874 -14.608829399931722 -1.4328001476900856
    vertex 0.8678834152091305 -30.489827734563406 -1.4328001476929733
    vertex 0.8678834152091164 -16.615598114778173 -1.4328001476930745
  endloop
endfacet
facet normal 0.0 0.0 1.0
  outer loop
    vertex 0.8678834152091305 -30.489827734563406 -1.4328001476929733
    vertex 2.5216628087414437 -32.4004581278478 -1.4328001476900856
    vertex 5.883802288103883 -23.553098114778138 -1.4328001476929733
  endloop
endfacet
facet normal 0.0 0.0 1.0
  outer loop
    vertex 5.883802288103883 -23.553098114778138 -1.4328001476929733
    vertex 2.5216628087414437 -32.4004581278478 -1.4328001476900856
    vertex 4.704350450563635 -31.4963593041809 -1.4328001476900856
  endloop
endfacet
facet normal 0.0 0.0 1.0
  outer loop
    vertex 5.883802288103883 -23.553098114778138 -1.4328001476929733
    vertex 4.704350450563635 -31.4963593041809 -1.4328001476900856
    vertex 6.578666820301887 -30.058145769669974 -1.4328001476900856
  endloop
endfacet
facet normal 0.0 0.0 1.0
  outer loop
    vertex 0.8678834152091164 -16.615598114778173 -1.4328001476930745
    vertex 2.5216628087414548 -14.917200672015655 -1.4328001476900856
    vertex 0.17935045056363874 -14.608829399931722 -1.4328001476900856
  endloop
endfacet
facet normal 0.0 0.0 1.0
  outer loop
    vertex 2.5216628087414548 -14.917200672015655 -1.4328001476900856
    vertex 0.8678834152091164 -16.615598114778173 -1.4328001476930745
    vertex 5.883802288103883 -23.553098114778138 -1.4328001476929733
  endloop
endfacet
facet normal 0.0 0.0 1.0
  outer loop
    vertex 2.5216628087414548 -14.917200672015655 -1.4328001476900856
    vertex 5.883802288103883 -23.553098114778138 -1.4328001476929733
    vertex 4.704350450563643 -15.821299495682553 -1.4328001476900856
  endloop
endfacet
facet normal 0.0 0.0 1.0
  outer loop
    vertex 4.704350450563643 -15.821299495682553 -1.4328001476900856
    vertex 5.883802288103883 -23.553098114778138 -1.4328001476929733
    vertex 6.578666820301887 -17.259513030193464 -1.4328001476900856
  endloop
endfacet
facet normal 0.0 0.0 1.0
  outer loop
    vertex 6.578666820301887 -17.259513030193464 -1.4328001476900856
    vertex 5.883802288103883 -23.553098114778138 -1.4328001476929733
    vertex 6.578666820301887 -30.058145769669974 -1.4328001476900856
  endloop
endfacet
facet normal 0.0 0.0 1.0
  outer loop
    vertex 6.578666820301887 -17.259513030193464 -1.4328001476900856
    vertex 6.578666820301887 -30.058145769669974 -1.4328001476900856
    vertex 8.016880354812798 -28.183829399931724 -1.4328001476900856
  endloop
endfacet
facet normal 0.0 0.0 1.0
  outer loop
    vertex 6.578666820301887 -17.259513030193464 -1.4328001476900856
    vertex 8.016880354812798 -28.183829399931724 -1.4328001476900856
    vertex 8.016880354812807 -19.133829399931717 -1.4328001476900856
  endloop
endfacet
facet normal 0.0 0.0 1.0
  outer loop
    vertex 8.016880354812807 -19.133829399931717 -1.4328001476900856
    vertex 8.016880354812798 -28.183829399931724 -1.4328001476900856
    vertex 8.920979178479705 -26.001141758109547 -1.4328001476900856
  endloop
endfacet
facet normal 0.0 0.0 1.0
  outer loop
    vertex 8.016880354812807 -19.133829399931717 -1.4328001476900856
    vertex 8.920979178479705 -26.001141758109547 -1.4328001476900856
    vertex 8.920979178479705 -21.31651704175391 -1.4328001476900856
  endloop
endfacet
facet normal 0.0 0.0 1.0
  outer loop
    vertex 8.920979178479705 -21.31651704175391 -1.4328001476900856
    vertex 8.920979178479705 -26.001141758109547 -1.4328001476900856
    vertex 9.229350450563633 -23.65882939993173 -1.4328001476900856
  endloop
endfacet
facet normal 0.0 0.0 1.0
  outer loop
    vertex 2.865052288103927 -23.553098114778138 -1.4328001476929733
    vertex 0.8678834152091164 -16.615598114778173 -1.4328001476930745
    vertex 0.8678834152091305 -30.489827734563406 -1.4328001476929733
  endloop
endfacet
facet normal 0.5000000000000016 -0.8660254037844378 0.0
  outer loop
    vertex 4.704350450563635 -31.4963593041809 -1.4328001476900856
    vertex 2.5216628087414437 -32.4004581278478 -2.432800147690086
    vertex 4.704350450563635 -31.4963593041809 -2.432800147690086
  endloop
endfacet
facet normal 0.2588190451025182 -0.965925826289069 0.0
  outer loop
    vertex 2.5216628087414437 -32.4004581278478 -2.432800147690086
    vertex 4.704350450563635 -31.4963593041809 -1.4328001476900856
    vertex 2.5216628087414437 -32.4004581278478 -1.4328001476900856
  endloop
endfacet
facet normal 0.2588190451025182 -0.965925826289069 0.0
  outer loop
    vertex 2.5216628087414437 -32.4004581278478 -1.4328001476900856
    vertex 0.1793504505636359 -32.70882939993172 -2.432800147690086
    vertex 2.5216628087414437 -32.4004581278478 -2.432800147690086
  endloop
endfacet
facet normal -4.312977189493102e-15 -1.0 0.0
  outer loop
    vertex 0.1793504505636359 -32.70882939993172 -2.432800147690086
    vertex 2.5216628087414437 -32.4004581278478 -1.4328001476900856
    vertex 0.1793504505636359 -32.70882939993172 -1.4328001476900856
  endloop
endfacet
facet normal -4.312977189493102e-15 -1.0 0.0
  outer loop
    vertex 0.1793504505636359 -32.70882939993172 -1.4328001476900856
    vertex -2.1629619076141817 -32.40045812784778 -2.432800147690086
    vertex 0.1793504505636359 -32.70882939993172 -2.432800147690086
  endloop
endfacet
facet normal -0.2588190451025188 -0.9659258262890689 0.0
  outer loop
    vertex -2.1629619076141817 -32.40045812784778 -2.432800147690086
    vertex 0.1793504505636359 -32.70882939993172 -1.4328001476900856
    vertex -2.1629619076141817 -32.40045812784778 -1.4328001476900856
  endloop
endfacet
facet normal -0.2588190451025188 -0.9659258262890689 0.0
  outer loop
    vertex -2.1629619076141817 -32.40045812784778 -1.4328001476900856
    vertex -4.345649549436366 -31.4963593041809 -2.432800147690086
    vertex -2.1629619076141817 -32.40045812784778 -2.432800147690086
  endloop
endfacet
facet normal -0.49999999999999817 -0.8660254037844396 0.0
  outer loop
    vertex -4.345649549436366 -31.4963593041809 -2.432800147690086
    vertex -2.1629619076141817 -32.40045812784778 -1.4328001476900856
    vertex -4.345649549436366 -31.4963593041809 -1.4328001476900856
  endloop
endfacet
facet normal -0.49999999999999817 -0.8660254037844396 0.0
  outer loop
    vertex -4.345649549436366 -31.4963593041809 -1.4328001476900856
    vertex -6.219965919174619 -30.058145769669974 -2.432800147690086
    vertex -4.345649549436366 -31.4963593041809 -2.432800147690086
  endloop
endfacet
facet normal -0.7071067811865497 -0.7071067811865456 0.0
  outer loop
    vertex -6.219965919174619 -30.058145769669974 -2.432800147690086
    vertex -4.345649549436366 -31.4963593041809 -1.4328001476900856
    vertex -6.219965919174619 -30.058145769669974 -1.4328001476900856
  endloop
endfacet
facet normal -0.866025403784439 -0.4999999999999994 0.0
  outer loop
    vertex -7.658179453685532 -28.183829399931717 -1.4328001476900856
    vertex -6.219965919174619 -30.058145769669974 -2.432800147690086
    vertex -6.219965919174619 -30.058145769669974 -1.4328001476900856
  endloop
endfacet
facet normal -0.7071067811865497 -0.7071067811865456 0.0
  outer loop
    vertex -6.219965919174619 -30.058145769669974 -2.432800147690086
    vertex -7.658179453685532 -28.183829399931717 -1.4328001476900856
    vertex -7.658179453685532 -28.183829399931717 -2.432800147690086
  endloop
endfacet
facet normal -0.9659258262890684 -0.25881904510252046 0.0
  outer loop
    vertex -8.562278277352432 -26.00114175810953 -1.4328001476900856
    vertex -7.658179453685532 -28.183829399931717 -2.432800147690086
    vertex -7.658179453685532 -28.183829399931717 -1.4328001476900856
  endloop
endfacet
facet normal -0.866025403784439 -0.4999999999999994 0.0
  outer loop
    vertex -7.658179453685532 -28.183829399931717 -2.432800147690086
    vertex -8.562278277352432 -26.00114175810953 -1.4328001476900856
    vertex -8.562278277352432 -26.00114175810953 -2.432800147690086
  endloop
endfacet
facet normal -1.0 -2.227777473911726e-16 0.0
  outer loop
    vertex -8.87064954943636 -23.65882939993173 -1.4328001476900856
    vertex -8.562278277352432 -26.00114175810953 -2.432800147690086
    vertex -8.562278277352432 -26.00114175810953 -1.4328001476900856
  endloop
endfacet
facet normal -0.9659258262890684 -0.25881904510252046 0.0
  outer loop
    vertex -8.562278277352432 -26.00114175810953 -2.432800147690086
    vertex -8.87064954943636 -23.65882939993173 -1.4328001476900856
    vertex -8.87064954943636 -23.65882939993173 -2.432800147690086
  endloop
endfacet
facet normal -0.9659258262890684 0.25881904510252024 0.0
  outer loop
    vertex -8.56227827735243 -21.316517041753904 -1.4328001476900856
    vertex -8.87064954943636 -23.65882939993173 -2.432800147690086
    vertex -8.87064954943636 -23.65882939993173 -1.4328001476900856
  endloop
endfacet
facet normal -1.0 -2.227777473911726e-16 0.0
  outer loop
    vertex -8.87064954943636 -23.65882939993173 -2.432800147690086
    vertex -8.56227827735243 -21.316517041753904 -1.4328001476900856
    vertex -8.56227827735243 -21.316517041753904 -2.432800147690086
  endloop
endfacet
facet normal -0.8660254037844384 0.5000000000000006 0.0
  outer loop
    vertex -7.6581794536855305 -19.133829399931717 -1.4328001476900856
    vertex -8.56227827735243 -21.316517041753904 -2.432800147690086
    vertex -8.56227827735243 -21.316517041753904 -1.4328001476900856
  endloop
endfacet
facet normal -0.9659258262890684 0.25881904510252024 0.0
  outer loop
    vertex -8.56227827735243 -21.316517041753904 -2.432800147690086
    vertex -7.6581794536855305 -19.133829399931717 -1.4328001476900856
    vertex -7.6581794536855305 -19.133829399931717 -2.432800147690086
  endloop
endfacet
facet normal -0.7071067811865468 0.7071067811865482 0.0
  outer loop
    vertex -6.219965919174617 -17.259513030193464 -1.4328001476900856
    vertex -7.6581794536855305 -19.133829399931717 -2.432800147690086
    vertex -7.6581794536855305 -19.133829399931717 -1.4328001476900856
  endloop
endfacet
facet normal -0.8660254037844384 0.5000000000000006 0.0
  outer loop
    vertex -7.6581794536855305 -19.133829399931717 -2.432800147690086
    vertex -6.219965919174617 -17.259513030193464 -1.4328001476900856
    vertex -6.219965919174617 -17.259513030193464 -2.432800147690086
  endloop
endfacet
facet normal -0.7071067811865468 0.7071067811865482 0.0
  outer loop
    vertex -6.219965919174617 -17.259513030193464 -1.4328001476900856
    vertex -4.34564954943636 -15.821299495682553 -2.432800147690086
    vertex -6.219965919174617 -17.259513030193464 -2.432800147690086
  endloop
endfacet
facet normal -0.4999999999999993 0.866025403784439 0.0
  outer loop
    vertex -4.34564954943636 -15.821299495682553 -2.432800147690086
    vertex -6.219965919174617 -17.259513030193464 -1.4328001476900856
    vertex -4.34564954943636 -15.821299495682553 -1.4328001476900856
  endloop
endfacet
facet normal -0.4999999999999993 0.866025403784439 0.0
  outer loop
    vertex -4.34564954943636 -15.821299495682553 -1.4328001476900856
    vertex -2.1629619076141733 -14.917200672015655 -2.432800147690086
    vertex -4.34564954943636 -15.821299495682553 -2.432800147690086
  endloop
endfacet
facet normal -0.2588190451025213 0.9659258262890681 0.0
  outer loop
    vertex -2.1629619076141733 -14.917200672015655 -2.432800147690086
    vertex -4.34564954943636 -15.821299495682553 -1.4328001476900856
    vertex -2.1629619076141733 -14.917200672015655 -1.4328001476900856
  endloop
endfacet
facet normal -0.2588190451025213 0.9659258262890681 0.0
  outer loop
    vertex -2.1629619076141733 -14.917200672015655 -1.4328001476900856
    vertex 0.17935045056363874 -14.608829399931722 -2.432800147690086
    vertex -2.1629619076141733 -14.917200672015655 -2.432800147690086
  endloop
endfacet
facet normal -9.802220885211597e-17 1.0 0.0
  outer loop
    vertex 0.17935045056363874 -14.608829399931722 -2.432800147690086
    vertex -2.1629619076141733 -14.917200672015655 -1.4328001476900856
    vertex 0.17935045056363874 -14.608829399931722 -1.4328001476900856
  endloop
endfacet
facet normal -9.802220885211597e-17 1.0 0.0
  outer loop
    vertex 0.17935045056363874 -14.608829399931722 -1.4328001476900856
    vertex 2.5216628087414548 -14.917200672015655 -2.432800147690086
    vertex 0.17935045056363874 -14.608829399931722 -2.432800147690086
  endloop
endfacet
facet normal 0.25881904510252113 0.9659258262890681 0.0
  outer loop
    vertex 2.5216628087414548 -14.917200672015655 -2.432800147690086
    vertex 0.17935045056363874 -14.608829399931722 -1.4328001476900856
    vertex 2.5216628087414548 -14.917200672015655 -1.4328001476900856
  endloop
endfacet
facet normal 0.25881904510252113 0.9659258262890681 0.0
  outer loop
    vertex 2.5216628087414548 -14.917200672015655 -1.4328001476900856
    vertex 4.704350450563643 -15.821299495682553 -2.432800147690086
    vertex 2.5216628087414548 -14.917200672015655 -2.432800147690086
  endloop
endfacet
facet normal 0.5000000000000006 0.8660254037844384 0.0
  outer loop
    vertex 4.704350450563643 -15.821299495682553 -2.432800147690086
    vertex 2.5216628087414548 -14.917200672015655 -1.4328001476900856
    vertex 4.704350450563643 -15.821299495682553 -1.4328001476900856
  endloop
endfacet
facet normal 0.5000000000000006 0.8660254037844384 0.0
  outer loop
    vertex 4.704350450563643 -15.821299495682553 -1.4328001476900856
    vertex 6.578666820301887 -17.259513030193464 -2.432800147690086
    vertex 4.704350450563643 -15.821299495682553 -2.432800147690086
  endloop
endfacet
facet normal 0.7071067811865472 0.7071067811865477 0.0
  outer loop
    vertex 6.578666820301887 -17.259513030193464 -2.432800147690086
    vertex 4.704350450563643 -15.821299495682553 -1.4328001476900856
    vertex 6.578666820301887 -17.259513030193464 -1.4328001476900856
  endloop
endfacet
facet normal 0.7071067811865472 0.7071067811865477 0.0
  outer loop
    vertex 6.578666820301887 -17.259513030193464 -2.432800147690086
    vertex 8.016880354812807 -19.133829399931717 -1.4328001476900856
    vertex 8.016880354812807 -19.133829399931717 -2.432800147690086
  endloop
endfacet
facet normal 0.8660254037844386 0.5000000000000002 0.0
  outer loop
    vertex 8.016880354812807 -19.133829399931717 -1.4328001476900856
    vertex 6.578666820301887 -17.259513030193464 -2.432800147690086
    vertex 6.578666820301887 -17.259513030193464 -1.4328001476900856
  endloop
endfacet
facet normal 0.8660254037844386 0.5000000000000002 0.0
  outer loop
    vertex 8.016880354812807 -19.133829399931717 -2.432800147690086
    vertex 8.920979178479705 -21.31651704175391 -1.4328001476900856
    vertex 8.920979178479705 -21.31651704175391 -2.432800147690086
  endloop
endfacet
facet normal 0.9659258262890688 0.25881904510251913 0.0
  outer loop
    vertex 8.920979178479705 -21.31651704175391 -1.4328001476900856
    vertex 8.016880354812807 -19.133829399931717 -2.432800147690086
    vertex 8.016880354812807 -19.133829399931717 -1.4328001476900856
  endloop
endfacet
facet normal 0.9659258262890688 0.25881904510251913 0.0
  outer loop
    vertex 8.920979178479705 -21.31651704175391 -2.432800147690086
    vertex 9.229350450563633 -23.65882939993173 -1.4328001476900856
    vertex 9.229350450563633 -23.65882939993173 -2.432800147690086
  endloop
endfacet
facet normal 1.0 0.0 0.0
  outer loop
    vertex 9.229350450563633 -23.65882939993173 -1.4328001476900856
    vertex 8.920979178479705 -21.31651704175391 -2.432800147690086
    vertex 8.920979178479705 -21.31651704175391 -1.4328001476900856
  endloop
endfacet
facet normal 1.0 0.0 0.0
  outer loop
    vertex 9.229350450563633 -23.65882939993173 -2.432800147690086
    vertex 8.920979178479705 -26.001141758109547 -1.4328001476900856
    vertex 8.920979178479705 -26.001141758109547 -2.432800147690086
  endloop
endfacet
facet normal 0.9659258262890682 -0.25881904510252174 0.0
  outer loop
    vertex 8.920979178479705 -26.001141758109547 -1.4328001476900856
    vertex 9.229350450563633 -23.65882939993173 -2.432800147690086
    vertex 9.229350450563633 -23.65882939993173 -1.4328001476900856
  endloop
endfacet
facet normal 0.9659258262890682 -0.25881904510252174 0.0
  outer loop
    vertex 8.920979178479705 -26.001141758109547 -2.432800147690086
    vertex 8.016880354812798 -28.183829399931724 -1.4328001476900856
    vertex 8.016880354812798 -28.183829399931724 -2.432800147690086
  endloop
endfacet
facet normal 0.8660254037844379 -0.5000000000000013 0.0
  outer loop
    vertex 8.016880354812798 -28.183829399931724 -1.4328001476900856
    vertex 8.920979178479705 -26.001141758109547 -2.432800147690086
    vertex 8.920979178479705 -26.001141758109547 -1.4328001476900856
  endloop
endfacet
facet normal 0.8660254037844379 -0.5000000000000013 0.0
  outer loop
    vertex 8.016880354812798 -28.183829399931724 -2.432800147690086
    vertex 6.578666820301887 -30.058145769669974 -1.4328001476900856
    vertex 6.578666820301887 -30.058145769669974 -2.432800147690086
  endloop
endfacet
facet normal 0.7071067811865491 -0.7071067811865459 0.0
  outer loop
    vertex 6.578666820301887 -30.058145769669974 -1.4328001476900856
    vertex 8.016880354812798 -28.183829399931724 -2.432800147690086
    vertex 8.016880354812798 -28.183829399931724 -1.4328001476900856
  endloop
endfacet
facet normal 0.7071067811865491 -0.7071067811865459 0.0
  outer loop
    vertex 6.578666820301887 -30.058145769669974 -1.4328001476900856
    vertex 4.704350450563635 -31.4963593041809 -2.432800147690086
    vertex 6.578666820301887 -30.058145769669974 -2.432800147690086
  endloop
endfacet
facet normal 0.5000000000000016 -0.8660254037844378 0.0
  outer loop
    vertex 4.704350450563635 -31.4963593041809 -2.432800147690086
    vertex 6.578666820301887 -30.058145769669974 -1.4328001476900856
    vertex 4.704350450563635 -31.4963593041809 -1.4328001476900856
  endloop
endfacet
facet normal -0.8103431602755287 0.5859555978012918 0.0
  outer loop
    vertex 5.883802288103883 -23.553098114778138 -1.4328001476929733
    vertex 0.8678834152091305 -30.489827734563406 -2.4328001476929733
    vertex 0.8678834152091305 -30.489827734563406 -1.4328001476929733
  endloop
endfacet
facet normal -0.8103431602755287 0.5859555978012918 0.0
  outer loop
    vertex 0.8678834152091305 -30.489827734563406 -2.4328001476929733
    vertex 5.883802288103883 -23.553098114778138 -1.4328001476929733
    vertex 5.883802288103883 -23.553098114778138 -2.4328001476929733
  endloop
endfacet
facet normal -0.8103740562027376 -0.5859128681241969 -7.92973595394188e-17
  outer loop
    vertex 0.8678834152091164 -16.615598114778173 -1.4328001476930745
    vertex 5.883802288103883 -23.553098114778138 -2.4328001476929733
    vertex 5.883802288103883 -23.553098114778138 -1.4328001476929733
  endloop
endfacet
facet normal -0.8103740562027376 -0.5859128681241969 -7.92973595394188e-17
  outer loop
    vertex 5.883802288103883 -23.553098114778138 -2.4328001476929733
    vertex 0.8678834152091164 -16.615598114778173 -1.4328001476930745
    vertex 0.8678834152091164 -16.615598114778173 -2.4328001476930745
  endloop
endfacet
facet normal 0.9609722232220456 0.27664487379251923 9.105730387464142e-17
  outer loop
    vertex 0.8678834152091164 -16.615598114778173 -2.4328001476930745
    vertex 2.865052288103927 -23.553098114778138 -1.4328001476929733
    vertex 2.865052288103927 -23.553098114778138 -2.4328001476929733
  endloop
endfacet
facet normal 0.9609722232220456 0.27664487379251923 9.105730387464142e-17
  outer loop
    vertex 2.865052288103927 -23.553098114778138 -1.4328001476929733
    vertex 0.8678834152091164 -16.615598114778173 -2.4328001476930745
    vertex 0.8678834152091164 -16.615598114778173 -1.4328001476930745
  endloop
endfacet
facet normal 0.9609640550472923 -0.27667324573775526 0.0
  outer loop
    vertex 2.865052288103927 -23.553098114778138 -2.4328001476929733
    vertex 0.8678834152091305 -30.489827734563406 -1.4328001476929733
    vertex 0.8678834152091305 -30.489827734563406 -2.4328001476929733
  endloop
endfacet
facet normal 0.9609640550472923 -0.27667324573775526 0.0
  outer loop
    vertex 0.8678834152091305 -30.489827734563406 -1.4328001476929733
    vertex 2.865052288103927 -23.553098114778138 -2.4328001476929733
    vertex 2.865052288103927 -23.553098114778138 -1.4328001476929733
  endloop
endfacet
endsolid Glass Battery Clip
